<svg xmlns="http://www.w3.org/2000/svg" viewBox="0 0 512 512">
<defs>
  <linearGradient id="cover" x1="0%" y1="0%" x2="60%" y2="100%">
    <stop offset="0%" style="stop-color:#1E5A38"/>
    <stop offset="100%" style="stop-color:#0D2B1A"/>
  </linearGradient>
  <linearGradient id="gold" x1="0%" y1="0%" x2="100%" y2="100%">
    <stop offset="0%" style="stop-color:#F0CC70"/>
    <stop offset="100%" style="stop-color:#B8902A"/>
  </linearGradient>
  <linearGradient id="page" x1="0%" y1="0%" x2="0%" y2="100%">
    <stop offset="0%" style="stop-color:#FFFEFC"/>
    <stop offset="100%" style="stop-color:#F0EDE3"/>
  </linearGradient>
  <linearGradient id="spine" x1="0%" y1="0%" x2="100%" y2="0%">
    <stop offset="0%" style="stop-color:#0A2214"/>
    <stop offset="100%" style="stop-color:#163D25"/>
  </linearGradient>
</defs>
<rect x="0" y="0" width="512" height="512" rx="110" fill="url(#cover)"/>
<rect x="0" y="0" width="512" height="240" rx="110" fill="rgba(255,255,255,0.07)"/>
<rect x="0" y="0" width="512" height="512" rx="110" fill="none" stroke="rgba(255,255,255,0.1)" stroke-width="2"/>
<rect x="0" y="0" width="82" height="512" rx="110" fill="url(#spine)"/>
<rect x="74" y="0" width="8" height="512" fill="rgba(0,0,0,0.2)"/>
<circle cx="41" cy="158" r="22" fill="none" stroke="url(#gold)" stroke-width="7"/>
<circle cx="41" cy="158" r="11" fill="#0D2B1A"/>
<circle cx="41" cy="256" r="22" fill="none" stroke="url(#gold)" stroke-width="7"/>
<circle cx="41" cy="256" r="11" fill="#0D2B1A"/>
<circle cx="41" cy="354" r="22" fill="none" stroke="url(#gold)" stroke-width="7"/>
<circle cx="41" cy="354" r="11" fill="#0D2B1A"/>
<rect x="90" y="22" width="400" height="468" rx="8" fill="url(#page)"/>
<rect x="90" y="22" width="400" height="62" rx="8" fill="#1A4731"/>
<rect x="90" y="60" width="400" height="24" fill="#1A4731"/>
<text x="290" y="62" font-family="Georgia,serif" font-size="22" font-weight="bold" fill="rgba(255,255,255,0.92)" text-anchor="middle" letter-spacing="3">PLANNER</text>
<rect x="108" y="86" width="364" height="2" rx="1" fill="#C9A84C" opacity="0.7"/>
<rect x="108" y="97" width="82" height="62" rx="7" fill="rgba(26,71,49,0.08)"/>
<text x="149" y="124" font-family="Georgia,serif" font-size="26" font-weight="bold" fill="#1A4731" text-anchor="middle">26</text>
<text x="149" y="146" font-family="Arial,sans-serif" font-size="11" fill="#6B6860" text-anchor="middle" letter-spacing="1">FRI</text>
<rect x="204" y="100" width="1.5" height="52" fill="#E0DDD7"/>
<text x="216" y="120" font-family="Arial,sans-serif" font-size="11" fill="#A8A49E" font-weight="bold" letter-spacing="1">JUNE 2026</text>
<text x="460" y="140" font-size="18" fill="#C9A84C" text-anchor="middle" opacity="0.8">✦</text>
<rect x="108" y="178" width="364" height="1.5" fill="#EAE7E0"/>
<circle cx="126" cy="200" r="8" fill="#1A4731"/>
<text x="126" y="204" font-size="10" fill="#fff" text-anchor="middle">✓</text>
<rect x="144" y="195" width="140" height="10" rx="2" fill="#CCC9C1"/>
<rect x="108" y="220" width="364" height="1.5" fill="#EAE7E0"/>
<circle cx="126" cy="242" r="8" fill="none" stroke="#CCC9C1" stroke-width="2"/>
<rect x="144" y="237" width="170" height="10" rx="2" fill="#E8E5DF"/>
<rect x="108" y="262" width="364" height="1.5" fill="#EAE7E0"/>
<rect x="144" y="275" width="160" height="12" rx="2" fill="rgba(201,168,76,0.2)"/>
<circle cx="126" cy="280" r="8" fill="none" stroke="#CCC9C1" stroke-width="2"/>
<rect x="144" y="276" width="160" height="9" rx="2" fill="#E8E5DF"/>
<rect x="108" y="304" width="364" height="1.5" fill="#EAE7E0"/>
<circle cx="126" cy="326" r="8" fill="none" stroke="#CCC9C1" stroke-width="2"/>
<rect x="144" y="321" width="120" height="10" rx="2" fill="#E8E5DF"/>
<rect x="108" y="346" width="364" height="1.5" fill="#EAE7E0"/>
<g transform="translate(420,370) rotate(-40)">
  <rect x="-8" y="-48" width="16" height="76" rx="3" fill="#C9A84C"/>
  <rect x="-8" y="-53" width="16" height="9" rx="2" fill="#9B9B9B"/>
  <rect x="-8" y="-48" width="16" height="4" fill="rgba(255,255,255,0.3)"/>
  <polygon points="-8,28 8,28 0,44" fill="#B8902A"/>
</g>
<text x="440" y="290" font-size="26" text-anchor="middle">⭐</text>
<rect x="108" y="468" width="364" height="2.5" rx="1.5" fill="#C9A84C" opacity="0.5"/>
<rect x="0" y="0" width="512" height="512" rx="110" fill="none" stroke="#C9A84C" stroke-width="1.5" opacity="0.2"/>
</svg>
